<?xml version="1.0" encoding="UTF-8"?>
<svg width="100" height="100" version="1.1" viewBox="0 0 100 100" xmlns="http://www.w3.org/2000/svg">
 <g transform="translate(-27.51 70.04)">
  <text x="99.111977" direction="rtl" font-family="Vazir" font-size="10.58px" stroke-width=".2646" style="line-height:1.25" xml:space="preserve"><tspan x="99.111977" y="0" stroke-width=".2646"/></text>
  <g transform="translate(-29.95 276.2)">
   <circle cx="107.4" cy="-296.1" r="21.07" fill="#ee523c" stop-color="#000000" style="-inkscape-stroke:none;font-variation-settings:normal;paint-order:markers fill stroke"/>
   <path d="m105.6-251.5c-2.875-0.6329-5.209-3.007-5.903-5.858-5.081-0.9683-9.939-3.005-14.26-5.84-3.184 1.766-7.577 1.391-9.98-1.512-2.493-2.444-2.662-6.523-1.028-9.496-2.833-4.33-4.886-9.181-5.855-14.27-4.294-0.9623-7.093-5.796-5.776-9.991 0.8049-2.659 3.037-4.816 5.75-5.484 1.018-5.082 3.034-9.947 5.882-14.28-1.768-3.18-1.375-7.578 1.514-9.981 2.444-2.491 6.522-2.66 9.494-1.027 4.325-2.834 9.182-4.873 14.26-5.84 0.958-4.301 5.794-7.11 9.996-5.791 2.676 0.8081 4.834 3.063 5.498 5.791 5.094 0.9117 9.93 3.036 14.26 5.84 3.194-1.777 7.66-1.376 10.02 1.579 2.486 2.433 2.577 6.477 0.9863 9.429 2.833 4.33 4.886 9.181 5.855 14.27 4.29 0.9615 7.09 5.789 5.778 9.981-0.8204 2.696-3.066 4.806-5.796 5.522-0.969 5.076-3.005 9.929-5.837 14.25 1.691 3.104 1.436 7.391-1.338 9.797-2.346 2.594-6.463 2.893-9.461 1.294-1.903 0.6643-3.7 2.249-5.732 2.954-2.779 1.268-5.712 2.287-8.728 2.8-1.013 4.126-5.436 7.016-9.605 5.86zm2.986-5.373c2.079-0.7654 1.922-4.057-0.1422-4.802-1.968-0.8606-4.309 1.279-3.51 3.308 0.4638 1.401 2.329 2.423 3.652 1.494zm-7.911-6.42c1.409-2.401 4.21-4.065 7.033-3.679 2.865-0.2449 5.634 1.766 6.842 4.303 4.122-0.6052 7.991-2.473 11.54-4.612-0.8721-3.002-0.2812-6.481 2.177-8.579 2.098-2.125 5.333-2.474 8.115-1.705 2.119-3.564 3.997-7.426 4.606-11.55-2.742-1.283-4.715-4.306-4.303-7.369-0.2449-2.865 1.766-5.634 4.303-6.842-0.609-4.119-2.484-7.984-4.606-11.55-3.455 1.088-7.611-0.1096-9.456-3.341-1.499-1.99-1.385-4.63-0.8354-6.943-3.553-2.142-7.423-4.003-11.54-4.612-1.05 2.27-3.374 4.03-5.831 4.303-1.774-0.01-3.618 0.2788-5.12-0.8936-1.444-0.6741-2.575-1.981-3.259-3.41-4.119 0.609-7.984 2.484-11.55 4.606 0.9374 3.138 0.1791 6.82-2.514 8.857-2.061 1.913-5.146 2.154-7.777 1.433-2.119 3.564-3.997 7.426-4.606 11.55 2.27 1.05 4.03 3.374 4.303 5.831-0.0097 1.774 0.2788 3.618-0.8936 5.12-0.6741 1.444-1.981 2.575-3.41 3.259 0.609 4.119 2.484 7.984 4.606 11.55 3.164-0.9405 6.901-0.1774 8.918 2.582 1.856 2.081 2.087 5.1 1.372 7.709 3.568 2.105 7.42 4.02 11.55 4.604 0.1118-0.2073 0.2252-0.4191 0.336-0.623zm2.642-9.491c-5.386-0.9126-10.34-3.803-13.91-7.912-3.954-4.588-6.095-10.73-5.67-16.79 0.1962-6.231 3.176-12.29 7.831-16.41 4.512-4.153 10.76-6.414 16.9-6.03 5.47 0.0876 10.89 2.378 14.9 6.067 5.158 4.564 8.189 11.51 7.794 18.41-0.0104 5.558-2.325 11.08-6.067 15.15-4.149 4.664-10.26 7.663-16.52 7.786-1.753-0.0695-3.532 0.1523-5.251-0.2716zm4.81-5.276c2.618-2.728 3.339-6.756 4.015-10.37 0.2447-1.711 0.4611-3.424 0.5813-5.149h-10.56c0.4843 5.237 1.05 10.83 4.188 15.23 0.5097 0.4118 1.209 0.9309 1.774 0.2866zm-9.038-3.114c-1.452-3.974-1.825-8.223-2.21-12.41h-7.74c0.7324 6.029 4.892 11.5 10.32 14.05 0.4631 0.0317-0.3887-1.332-0.3727-1.644zm17.82 0.8546c4.716-2.806 8.157-7.788 8.843-13.26h-7.74c-0.3893 4.77-0.9672 9.585-2.783 14.05 0.6492 0.0848 1.12-0.5441 1.68-0.7892zm-19.92-19.72c0.3647-4.378 1.022-8.769 2.674-12.87-3.005 1.097-5.549 3.563-7.439 6.159-1.607 2.331-2.803 5.062-3.044 7.892h7.7c0.03614-0.3952 0.07228-0.7904 0.1084-1.186zm15.63 0c-0.5112-4.898-1.162-10.14-4.209-14.18-1.247-1.23-2.366 0.4574-2.947 1.51-2.343 4.196-2.877 9.13-3.298 13.85h10.56c-0.0347-0.3952-0.0695-0.7904-0.1042-1.186zm13.01 0.3513c-0.9971-5.693-5.017-10.78-10.2-13.22-0.1415 1.053 1.04 2.865 1.168 4.282 0.8449 3.193 1.1 6.493 1.415 9.77h7.74c-0.0416-0.2781-0.0832-0.5562-0.1248-0.8343zm-43.19 31.99c2.101-0.8298 1.887-4.234-0.3025-4.855-1.811-0.7038-4.023 1.11-3.418 3.067 0.1065 1.642 2.363 2.637 3.72 1.788zm52.4-0.0225c2.382-0.9166 1.56-5.047-1.02-4.913-2.248-0.4562-3.77 2.746-2.19 4.327 0.6959 0.893 2.239 1.225 3.21 0.5859zm-63.22-26.17c2.147-0.8712 1.801-4.355-0.4551-4.883-2.303-0.7803-4.561 2.379-2.786 4.225 0.7485 0.8846 2.201 1.348 3.241 0.6571zm74.14-0.0759c1.802-0.7695 1.793-3.732 0-4.502-1.776-1.3-4.428 0.6716-3.884 2.76 0.2078 1.644 2.487 2.815 3.884 1.742zm-63.18-26.19c2.378-1.013 1.326-5.061-1.247-4.871-2.545-0.3327-3.681 3.507-1.591 4.806 0.8329 0.5412 2.018 0.7288 2.838 0.0655zm52.2 0.113c2.346-0.8369 1.741-5.075-0.8991-4.807-1.911-0.3924-3.53 1.649-2.705 3.376 0.3974 1.449 2.329 2.187 3.604 1.431zm-25.91-11c2.251-1.201 1.097-4.929-1.365-4.871-2.51-0.1821-3.781 3.653-1.481 4.871 0.699 0.5785 2.15 0.6197 2.846 0z" fill="#ececec" stroke-width=".1756"/>
  </g>
 </g>
</svg>
