<?xml version="1.0" encoding="UTF-8"?>
<svg width="100" height="100" version="1.1" viewBox="0 0 100 100" xmlns="http://www.w3.org/2000/svg">
 <g transform="translate(-27.51 70.04)">
  <text x="99.111977" direction="rtl" font-family="Vazir" font-size="10.58px" stroke-width=".2646" style="line-height:1.25" xml:space="preserve"><tspan x="99.111977" y="0" stroke-width=".2646"/></text>
  <g transform="translate(231.8 276.2)">
   <path d="m-188.7-273.2v-19.85h-10.54v-23.71h10.54v-5.269c6.922-0.0558 13.88 0.1107 20.78-0.0827 16.02-5.671 32.06-11.29 48.07-16.99v20.68c3.513 1.753 7.026 3.507 10.54 5.26v16.52c-3.512 1.753-7.024 3.506-10.54 5.259l-0.0906 20.59c-16.04-5.664-32.08-11.33-48.13-16.99-1.211 0.2114-3.308-0.2712-4.013 0.3364 0.631 2.574 1.039 5.216 1.807 7.749h5.465l-0.0972 5.181c-1.4 0-3.206 0.0201-4.339 0.0201 0.4065 1.635 0.8282 3.607 1.202 5.249 1.953 0.0321 3.906 0.0643 5.859 0.0964v15.8h-26.52c0-6.616-1e-5 -13.23-1e-5 -19.85zm21.25 11.95c0-1.531-0.4973-2.67-1.988-2.67-1.533-0.0195-2.841-0.1468-3.21-1.755l-4.901-22.01c-1.961-0.032-3.923-0.0641-5.884-0.0963v29.16h15.98zm42.33-70.26-7.992 2.723v47.75l7.992 2.751zm-13.35 4.582c-8.776 3.126-17.57 6.206-26.35 9.328v25.37c8.713 3.039 17.39 6.242 26.13 9.18 0.5104-1.025 0.0746-3.05 0.2195-4.461zm-10.54 12.81h5.269v18.44h-5.269zm-21.08-2.635h-13.35v23.71h13.35zm55.5 16.04v-9.192l-5.269-2.639v15.11zm-74.12-10.77h-5.269v13.17h5.269z" fill="#ececec" stroke-width=".1756"/>
   <path d="m-183.5-316.8h13.35v23.71h-13.35z" fill="#ee523c"/>
   <path d="m-133.1-328.8 7.992-2.723v53.22l-7.992-2.751z" fill="#ee523c" stop-color="#000000" style="-inkscape-stroke:none;font-variation-settings:normal"/>
  </g>
 </g>
</svg>
