<?xml version="1.0" encoding="UTF-8"?>
<svg width="100" height="100" version="1.1" viewBox="0 0 100 100" xmlns="http://www.w3.org/2000/svg">
 <g transform="translate(-27.51 70.04)">
  <text x="99.111977" direction="rtl" font-family="Vazir" font-size="10.58px" stroke-width=".2646" style="line-height:1.25" xml:space="preserve"><tspan x="99.111977" y="0" stroke-width=".2646"/></text>
  <g transform="translate(-291.7 276.2)">
   <path d="m340.1-257.1c0.1194-1.974-0.2347-4.143 0.1693-6 2.19-2.201 4.38-4.401 6.57-6.602 1.194-0.2132 3.092 0.2656 3.889-0.3388l0.0909-10.39h7.763c-0.6059-4.9-3.057-9.543-6.802-12.77-8.719-3.243-15.9-10.21-19.5-18.78-2.431-5.59-2.923-11.76-2.716-17.79l-1.5e-4 -6.161h15.98v-5.269h47.42v5.269h16.02c-0.1351 4.946 0.0459 9.921-0.2871 14.85-1.255 9.601-6.616 18.63-14.67 24.07-2.163 1.578-4.706 2.69-7.116 3.765-3.025 2.307-5.213 5.901-6.324 9.602-0.0747 0.941-1.026 2.647-0.3812 3.22h7.483l0.093 10.63c1.322 0.16 2.852-0.1653 4.056 0.2689 2.19 2.201 4.38 4.401 6.57 6.602v11.66h-58.31c2e-5 -1.943 5e-5 -3.887 7e-5 -5.83zm53.04-1.5c0.3868-1.647-0.4336-2.794-1.694-3.76-1.078-0.9213-1.85-2.58-3.516-2.083h-38.78c-1.193 1.365-2.873 2.528-3.782 4.01 0.2949 1.163-0.6046 3.52 0.4799 3.894h47.29zm-10.71-16.56h-26.35v5.445h26.35zm-7.523-7.07c0.8081-5.718 3.939-10.86 8.051-14.83 3.507-3.648 5.144-8.859 4.741-13.87v-14.46h-36.88c0.0604 6.174-0.1203 12.37 0.0902 18.53 0.579 4.495 3.005 8.525 6.302 11.57 3.809 4.036 6.111 9.36 6.693 14.86h10.71c0.0978-0.6 0.1956-1.2 0.2934-1.8zm-7.904-16.91c-2.398-0.4512-4.428-1.903-5.994-3.733-1.783-2.204-2.652-5.188-2.191-8.022 0.3746-3.682 3.017-6.992 6.453-8.343 3.106-1.284 6.817-0.9314 9.675 0.8458 3.052 1.939 5.029 5.526 4.84 9.174 0.0648 2.274-0.8997 4.629-2.312 6.374-1.709 2.065-4.08 3.512-6.76 3.862-1.21 0.195-2.524 0.1501-3.712-0.1588zm4.456-5.512c3.219-1.277 4.234-6.143 1.549-8.456-1.271-1.844-3.715-1.604-5.631-1.368-2.845 1.127-4.389 4.798-2.783 7.505 1.216 2.454 4.418 3.5 6.866 2.32zm-25.05 1.905c-1.327-3.78-0.5858-7.84-0.826-11.76-0.0436-5.354-0.0872-10.71-0.1308-16.06l-10.63-0.093c-0.1114 5.318-0.0602 10.77 1.962 15.78 1.957 5.082 5.396 9.521 9.691 12.86 0.2658-0.1542-0.078-0.4868-0.0698-0.712zm48.07-1.446c6.392-5.812 9.614-14.61 9.195-23.18-0.3428-1.072 0.8617-3.703-0.9567-3.288l-9.666 0.0846c-0.0779 7.904 0.1219 15.83-0.1309 23.72-0.1932 1.656-0.5453 3.285-1.051 4.873 0.9803-0.6121 1.78-1.418 2.61-2.212zm-6.785-31.74h-36.88v5.269h36.88z" fill="#ececec" stroke-width=".1756"/>
   <path d="m350.8-335.9h36.88v5.269h-36.88z" fill="#ee523c" stop-color="#000000" style="-inkscape-stroke:none;font-variation-settings:normal"/>
   <path d="m382.4-275.2v5.445h-26.35v-5.445z" fill="#ee523c" stop-color="#000000" style="-inkscape-stroke:none;font-variation-settings:normal"/>
  </g>
 </g>
</svg>
