<?xml version="1.0" encoding="UTF-8"?>
<svg width="100" height="100" version="1.1" viewBox="0 0 100 100" xmlns="http://www.w3.org/2000/svg">
 <g transform="translate(-27.51 70.04)">
  <text x="99.111977" direction="rtl" font-family="Vazir" font-size="10.58px" stroke-width=".2646" style="line-height:1.25" xml:space="preserve"><tspan x="99.111977" y="0" stroke-width=".2646"/></text>
  <g transform="translate(100.9 276.2)">
   <path d="m-68.39-269.7h10.54v-15.98h31.79v-5.269h-42.33v-15.8c2.243-0.0318 4.485-0.0636 6.728-0.0954 0.8742-3.108 2.138-6.082 3.665-8.923-1.561-1.564-3.121-3.128-4.682-4.692 5.004-5.004 10.01-10.01 15.01-15.01 1.572 1.569 3.144 3.137 4.716 4.706 2.805-1.602 5.83-2.736 8.899-3.717 0.0318-2.233 0.0636-4.467 0.0954-6.7h21.06c0.0318 2.243 0.0636 4.485 0.0954 6.728 3.108 0.8742 6.082 2.138 8.923 3.665 1.599-1.496 3.082-3.271 4.751-4.597 4.864 4.53 9.545 9.504 14.34 14.2 1.423 1.171-1.405 2.226-1.948 3.291-1.109 1.13-2.881 2.154-1.32 3.714 1.245 2.321 2.106 4.817 2.866 7.332 2.243 0.0318 4.485 0.0636 6.728 0.0954v15.8h-42.33v5.269h31.79v15.98h10.54v18.44h-26.52v-18.44c3.542-0.031 7.084-0.062 10.63-0.093v-10.54c-8.811-0.03-17.62-0.06-26.43-0.09v10.72h10.54v18.44h-26.35v-18.44h10.54v-10.72l-26.43 0.09v10.54c3.542 0.031 7.084 0.062 10.63 0.093v18.44h-26.52c1.3e-5 -6.147 1.2e-5 -12.29 1.2e-5 -18.44zm21.26 5.269h-15.99v7.907c4.996-0.6648 12.52 1.21 15.91-1.068 0.02759-2.28 0.05514-4.559 0.08271-6.839zm31.61-1e-5h-15.81v7.904h15.81v-7.904zm31.79 0h-15.98v7.904h15.98v-7.904zm-68.79-32.34c0.1271-5.021 1.508-10.05 4.116-14.36 4.944-8.314 14.22-13.9 23.92-14.13 9.776-0.5038 19.55 4.483 25.02 12.58 3.222 4.586 4.932 10.13 5.129 15.71 0.2258 1.559 2.879 0.379 4.16 0.7465h6.447v-5.269h-5.614c-1.003-5.039-2.721-9.968-5.711-14.19-1.285-1.347 1.241-2.232 1.848-3.294 1.92-1.127 1.372-2.251-0.2271-3.375-1.89-1.888-3.779-3.776-5.669-5.664-1.417 1.212-2.59 3.011-4.155 3.866-4.31-3.033-9.237-5.072-14.41-6.044-1.065-0.6759-0.2144-2.879-0.483-4.189 0.7503-2.279-1.679-1.379-3.052-1.535h-7.486v5.597c-4.894 1.015-9.708 2.641-13.85 5.509-1.39 1.632-2.396-0.6319-3.457-1.449-1.126-1.671-2.252-1.993-3.375-0.1325-1.948 1.95-3.896 3.899-5.844 5.849 1.247 1.355 2.809 2.58 3.866 4.015-2.329 3.79-4.628 7.819-5.479 12.28-0.3631 1.516-0.383 3.43-2.455 2.756-1.138 0.3095-3.555-0.6606-3.833 0.5087v4.761h10.49c0.03655-0.183 0.0731-0.3659 0.1096-0.5488zm10.7-0.9917c0.3736-7.002 5.377-13.31 11.87-15.78 3.015-1.431 6.37-0.9561 9.599-1.024 6.327 1.198 11.93 5.691 14.22 11.75 0.8542 2.096 1.149 4.348 1.205 6.598h5.352c-0.03195-7.778-4.027-15.39-10.51-19.71-4.308-2.981-9.636-4.393-14.86-4.039-8.696 0.4146-16.75 6.182-20.26 14.11-1.325 3.04-1.979 6.33-2.049 9.644h5.346c0.03333-0.5136 0.0664-1.027 0.0999-1.541zm31.57 0.7062c-0.2118-5.886-4.964-11.21-10.77-12.16-4.981-0.9767-10.38 1.236-13.25 5.429-1.526 2.227-2.387 4.856-2.369 7.567h26.4c-6.22e-4 -0.2779-3e-4 -0.5568-0.0013-0.8343z" fill="#ececec" stroke-width=".1756"/>
   <g fill="#ee523c">
    <path d="m-63.12-264.5h15.99l-0.09453 7.816-15.9 0.0914z" stop-color="#000000" style="-inkscape-stroke:none;font-variation-settings:normal"/>
    <path d="m-31.32-264.5h15.81v7.904h-15.81z" stop-color="#000000" style="-inkscape-stroke:none;font-variation-settings:normal"/>
    <path d="m0.2906-264.5h15.98v7.904h-15.98z" stop-color="#000000" style="-inkscape-stroke:none;font-variation-settings:normal"/>
   </g>
  </g>
 </g>
</svg>
