<?xml version="1.0" encoding="UTF-8"?>
<svg width="100" height="100" version="1.1" viewBox="0 0 100 100" xmlns="http://www.w3.org/2000/svg">
 <g transform="translate(-27.51 70.04)">
  <text x="99.111977" direction="rtl" font-family="Vazir" font-size="10.58px" stroke-width=".2646" style="line-height:1.25" xml:space="preserve"><tspan x="99.111977" y="0" stroke-width=".2646"/></text>
  <g transform="translate(-160.8 276.2)">
   <path transform="translate(27.51 -70.04)" d="m234.7-261.5c-3.44 1.309-6.718 3.301-10.1 4.873-1.495 0.8824-3.034 1.582-4.811 1.273-9.892 0.0458-19.81-0.0858-29.69 0.0703-2.243 0.2471-3.527 2.562-3.094 4.666v5.893l46.19 0.1758c3.49 1.003 6.361 4.136 6.668 7.779 0.0374 8.794 0.0739 17.59 0.1113 26.38 2.72-0.0853 5.529 0.1613 8.193-0.1309l0.4766-0.2715c1.611-0.7363 1.997-2.559 1.77-4.176-0.0143-12.46 0.1614-24.94 0.0293-37.38-0.343-2.08-2.476-3.372-4.506-2.936-3.75-0.0302-7.5-0.0614-11.25-0.0918z" fill="#ee523c" stop-color="#000000" style="-inkscape-stroke:none;font-variation-settings:normal"/>
   <path d="m209.2-257.1v-4.742c-3.932-0.2328-8.231 0.7841-11.77-1.423-3.003-1.903-4.413-5.602-4.038-9.082 0.0331-11.56-0.0711-23.14 0.0476-34.69 0.4747-3.73 3.454-6.914 7.159-7.607 2.833-0.1574 5.709-0.0225 8.558-0.0677 0.2061-3.124-0.1716-6.349 0.403-9.41 0.7699-2.809 3.026-5.174 5.772-6.1 3.923-0.9256 8.012-0.2731 12.01-0.4694 7.007-1e-3 14.01-3e-3 21.02-4e-3 6.388-3.134 12.72-6.482 19.14-9.485v9.485c3.932 0.234 8.231-0.7816 11.77 1.425 3.003 1.903 4.413 5.602 4.038 9.082-0.033 12.44 0.071 24.89-0.0476 37.32-0.5289 4.386-4.685 8.106-9.173 7.672-2.194 1e-3 -4.389 2e-3 -6.583 3e-3 7e-3 3.234 0.3086 6.683-1.604 9.493-1.798 2.532-4.872 4.024-7.995 3.85-9.856 2e-3 -19.71 4e-3 -29.57 6e-3 -6.388 3.134-12.72 6.482-19.14 9.485-3.5e-4 -1.581-6.9e-4 -3.163-1e-3 -4.744zm11.77-6.938c2.234-0.9483 4.325-2.501 6.648-3.074 10.48-0.0452 20.98 0.0871 31.44-0.0682 2.243-0.2471 3.528-2.561 3.095-4.665v-35.05c-0.6309-1.645-2.195-2.873-4.013-2.461-18.98-0.027-37.96-0.0541-56.93-0.0812-1.648 0.6395-2.846 2.263-2.464 4.069 0.014 11.75-0.1618 23.52-0.0298 35.25 0.3432 2.08 2.475 3.373 4.505 2.936 3.75 0.0303 7.5 0.0606 11.25 0.0908v6.128c2.22-0.6997 4.339-2.11 6.499-3.074zm-17-13.74c-0.1881-1.754-0.1023-3.23 2.06-2.594 16.92-0.0285 33.85-0.0569 50.77-0.0854v5.27h-52.88c0.0162-0.8636 0.0324-1.727 0.0486-2.591zm-0.0393-10.58c-0.2071-1.756-0.1825-3.28 2.011-2.635h50.86v5.269h-52.87c-1e-5 -0.8782-2e-5 -1.756-3e-5 -2.635zm0-10.54c-0.2071-1.756-0.1825-3.28 2.011-2.635h24.51v5.269h-26.52c-1e-5 -0.8782-2e-5 -1.756-3e-5 -2.635zm72.27 18.04c1.611-0.7363 1.997-2.56 1.77-4.176-0.0143-12.46 0.1608-24.94 0.0287-37.38-0.343-2.08-2.475-3.373-4.505-2.936-3.75-0.0302-7.5-0.0605-11.25-0.0909v-6.128c-3.44 1.309-6.718 3.301-10.1 4.873-1.495 0.8824-3.034 1.583-4.811 1.275-9.892 0.0458-19.81-0.0861-29.69 0.07-2.243 0.2471-3.528 2.562-3.095 4.665v5.893l46.19 0.1758c3.49 1.003 6.361 4.137 6.668 7.78 0.0374 8.794 0.0748 17.59 0.1122 26.38 2.72-0.0853 5.527 0.1618 8.192-0.1304l0.4769-0.2715z" fill="#ececec" stroke-width=".1756"/>
  </g>
 </g>
</svg>
